<?xml version="1.0" standalone="no"?>
<!DOCTYPE svg PUBLIC "-//W3C//DTD SVG 20010904//EN"
 "http://www.w3.org/TR/2001/REC-SVG-20010904/DTD/svg10.dtd">
<svg version="1.0" xmlns="http://www.w3.org/2000/svg"
 width="1024.000000pt" height="1024.000000pt" viewBox="0 0 1024.000000 1024.000000"
 preserveAspectRatio="xMidYMid meet">

<g transform="translate(0.000000,1024.000000) scale(0.100000,-0.100000)"
fill="#000000" stroke="none">
<path d="M5260 9126 c-41 -23 -133 -77 -205 -118 -272 -158 -643 -372 -722
-417 l-83 -46 0 -496 0 -496 -52 -6 c-29 -4 -82 -21 -118 -39 -145 -74 -408
-233 -448 -272 -37 -35 -70 -91 -109 -181 -4 -11 -9 188 -11 465 l-2 485 -251
144 c-195 112 -255 142 -268 135 -9 -6 -100 -58 -202 -117 l-186 -107 -54
-118 c-31 -64 -179 -384 -330 -709 -151 -326 -277 -593 -281 -593 -5 0 -8 52
-8 115 0 79 -4 115 -11 115 -7 0 -177 -96 -380 -212 l-368 -213 -3 -330 c-2
-181 1 -335 5 -342 6 -8 89 35 270 139 322 185 327 188 332 188 3 0 5 -69 5
-152 l1 -153 39 -20 c22 -11 215 -121 429 -245 l390 -225 1 -78 0 -78 -83 -39
c-151 -70 -258 -78 -506 -36 -267 45 -355 34 -535 -66 l-108 -61 -34 18 c-34
18 -35 18 -100 -8 l-67 -26 -68 39 c-37 22 -78 41 -91 42 -13 1 -74 -28 -139
-65 -64 -37 -126 -67 -138 -67 -22 0 -82 -28 -112 -52 -32 -26 -40 -58 -38
-156 l2 -97 -87 -50 c-47 -27 -86 -53 -86 -57 0 -17 31 -6 106 37 69 40 80 43
89 29 6 -9 24 -35 41 -58 l32 -42 -49 -28 c-46 -26 -63 -46 -38 -46 6 0 36 14
65 31 l54 30 98 -56 99 -55 56 25 c31 15 66 38 77 53 23 29 27 33 158 109 49
29 96 60 103 70 9 10 14 45 15 102 l2 86 35 25 c38 27 52 62 43 107 -6 27 -2
31 96 85 57 31 126 64 153 73 74 25 196 22 368 -8 231 -42 371 -32 513 34 34
16 64 29 67 29 4 0 8 -90 9 -201 l3 -200 223 -129 c122 -71 228 -130 235 -132
7 -1 39 13 72 32 33 19 72 42 88 50 15 8 64 37 108 63 45 27 83 47 85 45 4 -4
-24 -74 -189 -469 -59 -141 -107 -262 -107 -269 0 -28 24 1 49 60 15 35 32 65
37 67 6 2 48 -18 95 -43 46 -26 94 -52 106 -58 13 -6 23 -15 23 -19 0 -4 -14
-40 -30 -79 -21 -48 -27 -75 -20 -82 5 -5 11 -8 13 -5 4 6 83 193 162 384 36
87 67 161 69 162 2 2 21 -25 43 -59 52 -82 150 -204 205 -253 94 -85 115 -102
188 -149 41 -27 76 -50 77 -51 2 -1 -77 -199 -173 -441 -97 -241 -180 -456
-185 -476 -13 -54 2 -83 58 -112 26 -13 66 -36 87 -51 46 -31 74 -29 133 8 33
21 172 101 228 131 11 6 31 19 45 28 31 20 122 72 175 99 22 11 65 36 95 54
30 19 61 35 68 35 6 0 12 3 12 8 0 4 30 23 68 42 37 19 69 38 72 41 3 3 15 11
28 18 31 16 70 82 77 128 5 36 -1 46 -125 213 -71 96 -130 180 -130 185 0 9
64 53 100 69 8 3 29 15 45 26 17 11 46 28 65 37 19 10 57 33 85 51 54 35 85
40 109 17 8 -8 18 -15 22 -15 4 0 46 -23 93 -51 132 -79 168 -99 436 -253
l250 -143 3 -301 2 -302 38 -23 c20 -13 125 -74 233 -136 l196 -112 50 28 c28
15 88 50 134 77 46 27 112 65 146 83 34 19 66 39 70 46 4 7 7 87 8 178 0 112
4 171 12 180 6 8 38 28 70 44 32 17 60 33 63 36 3 3 20 14 38 23 l32 17 -2
246 -3 247 -105 61 -105 60 -2 769 -2 769 57 106 c37 68 58 99 60 86 1 -11 -8
-132 -21 -270 -24 -252 -22 -301 8 -318 17 -9 20 -95 5 -217 -9 -84 -1 -103
48 -113 37 -8 95 -49 187 -132 42 -38 87 -74 99 -78 33 -14 142 -1 178 20 48
28 64 62 53 110 -9 32 -18 43 -65 68 -126 69 -174 119 -204 214 -23 70 -23 84
0 113 19 24 22 44 26 183 3 86 8 158 10 161 3 2 34 -9 69 -25 114 -54 179 -66
339 -65 118 0 159 4 223 22 114 32 175 66 239 133 59 62 67 80 72 174 l2 50
40 -5 c21 -3 104 -5 184 -5 160 1 235 17 353 77 226 114 252 328 56 464 -94
65 -278 114 -429 114 -187 0 -381 -63 -480 -155 -25 -24 -26 -24 -95 -9 -86
19 -303 13 -385 -10 -30 -8 -56 -14 -58 -12 -1 2 5 55 14 117 21 138 24 454 5
604 -7 55 -28 192 -48 305 -36 210 -39 302 -16 496 l5 51 127 -102 c70 -56
138 -105 152 -108 68 -19 132 1 167 51 21 29 27 73 68 470 10 94 21 172 26
172 4 0 14 -13 22 -29 16 -29 34 -41 65 -41 12 0 126 -152 351 -467 183 -258
347 -483 363 -500 103 -110 298 -74 472 89 94 88 152 168 209 289 55 116 75
189 83 299 10 150 -34 264 -124 317 -42 24 -71 28 -635 83 -618 60 -606 58
-621 103 -1 5 -30 12 -63 14 -68 5 -114 20 -114 38 0 42 -133 125 -200 125
-18 0 -45 8 -60 17 -27 15 -30 15 -55 -1 -51 -34 -57 -101 -10 -126 19 -10 25
-21 25 -45 0 -18 18 -71 40 -118 47 -101 50 -139 19 -277 -12 -52 -23 -97 -25
-99 -2 -2 -38 22 -79 54 -65 50 -75 61 -75 89 0 17 -4 36 -8 41 -13 19 -136
112 -212 160 -41 27 -77 49 -79 51 -2 2 6 15 18 30 35 45 49 117 47 259 -1
127 -2 131 -30 168 -42 55 -169 136 -245 157 -16 4 -34 24 -51 55 -37 69 -87
107 -149 113 -43 4 -53 1 -75 -21 -14 -15 -26 -37 -26 -50 0 -16 -7 -26 -20
-30 -26 -7 -43 -53 -35 -94 7 -38 46 -88 85 -108 26 -14 27 -15 22 -94 -6
-101 9 -155 58 -214 l38 -46 -15 -73 c-18 -88 -31 -104 -141 -171 -194 -119
-217 -162 -262 -505 -27 -207 -52 -457 -51 -522 0 -102 47 -328 108 -520 36
-112 57 -240 40 -240 -5 0 -47 23 -94 50 l-85 51 -203 -118 -203 -118 -293
-632 c-162 -348 -297 -633 -301 -633 -5 0 -8 321 -8 713 0 639 -4 760 -25 884
-6 31 -3 34 42 55 26 13 50 26 53 29 3 3 34 21 70 40 36 19 67 37 70 40 3 3
28 19 55 34 28 16 83 48 122 72 40 24 75 43 77 43 2 0 34 18 70 40 36 22 69
40 73 40 5 0 7 42 7 93 -1 50 -2 493 -3 983 l-1 892 -127 72 c-71 40 -192 111
-271 157 -78 45 -146 83 -150 83 -4 0 -41 -20 -82 -44z m331 -128 c137 -79
247 -147 246 -153 -2 -5 -55 -40 -118 -76 -63 -36 -204 -118 -314 -181 -110
-64 -290 -168 -400 -231 l-200 -116 -75 42 c-173 95 -422 245 -422 253 0 5 67
48 149 95 81 47 285 164 453 261 168 96 332 192 365 212 33 20 62 36 64 36 2
0 115 -64 252 -142z m1587 -381 c16 -19 12 -264 -5 -312 -36 -103 -141 -153
-221 -105 -39 24 -42 24 -42 5 0 -19 57 -55 87 -55 33 0 36 -15 15 -62 -30
-68 -54 -83 -126 -82 -65 0 -111 18 -158 61 l-26 25 42 42 c37 35 45 50 55
106 7 36 14 72 17 81 2 9 -7 30 -21 47 -30 36 -31 48 -6 62 29 15 48 3 65 -42
9 -22 22 -38 28 -36 7 3 17 31 23 64 21 116 46 146 111 130 24 -6 25 -5 18 28
l-6 35 33 -9 c18 -5 42 -19 54 -30 26 -24 50 -27 41 -4 -17 44 -18 64 -3 64 8
0 19 -6 25 -13z m-1658 -360 l0 -354 -25 -11 c-14 -7 -30 -12 -35 -12 -5 0 -9
148 -10 349 l0 350 22 15 c49 34 48 40 48 -337z m-90 -50 l0 -353 -29 -17
c-16 -9 -32 -17 -35 -17 -3 0 -6 159 -6 354 l0 354 23 15 c48 34 47 40 47
-336z m-99 -48 c0 -189 -1 -349 -1 -355 0 -9 -41 -34 -55 -34 -3 0 -5 160 -5
355 l0 354 28 15 c15 8 28 13 30 11 1 -1 3 -157 3 -346z m-934 283 c54 -32
164 -96 246 -142 l147 -84 0 -458 c0 -421 -3 -483 -24 -449 -13 20 -186 127
-272 168 -50 23 -117 49 -150 56 l-59 14 -3 476 c-1 284 2 477 7 477 5 0 53
-26 108 -58z m826 -709 c-43 -32 -43 -31 -43 340 l0 352 28 17 27 17 3 -357
c2 -327 1 -358 -15 -369z m2532 671 c30 -15 58 -31 61 -36 7 -10 -54 -67 -72
-68 -34 -1 -101 86 -90 116 8 21 39 17 101 -12z m-134 -75 c10 -31 20 -43 47
-55 26 -10 132 -70 160 -89 1 -1 -7 -85 -18 -186 -11 -101 -24 -236 -30 -299
-6 -63 -16 -132 -21 -152 -13 -51 -50 -78 -106 -78 -52 0 -59 4 -225 138
l-116 94 -12 62 c-9 48 -9 73 0 106 15 56 39 92 57 86 8 -3 64 -45 124 -92
120 -94 119 -92 94 -184 -8 -30 -15 -65 -15 -78 0 -33 23 -22 31 14 3 16 25
112 48 214 51 220 51 261 -1 366 -35 70 -58 174 -39 174 6 0 16 -18 22 -41z
m411 -71 c3 -7 -8 -23 -24 -36 -33 -28 -58 -72 -58 -102 0 -28 -28 -25 -36 4
-9 36 13 92 47 121 33 27 65 33 71 13z m-4889 -79 c67 -40 165 -96 217 -127
52 -30 96 -56 98 -57 3 -3 -344 -205 -352 -205 -3 0 -27 13 -53 29 -27 16 -71
42 -98 58 -209 118 -295 168 -295 173 0 8 332 199 348 199 7 1 67 -31 135 -70z
m1813 29 l74 -43 1 -62 c3 -146 6 -138 -41 -111 -22 13 -40 26 -40 29 0 3 11
16 25 29 25 23 33 50 16 50 -5 0 -23 -14 -40 -31 -19 -18 -38 -29 -46 -25 -21
8 -19 20 12 50 20 20 23 30 15 38 -9 9 -20 2 -46 -25 -29 -31 -36 -34 -51 -23
-16 11 -15 15 15 44 26 26 29 33 16 38 -9 3 -23 1 -31 -6 -13 -11 -15 -7 -15
21 0 27 6 38 28 51 15 10 29 18 31 18 2 0 37 -19 77 -42z m3579 -43 c259 -25
486 -48 505 -51 l35 -6 -47 -23 c-108 -53 -207 -145 -294 -277 -93 -140 -142
-284 -153 -447 l-6 -93 -297 416 c-192 269 -298 425 -298 440 0 29 45 86 68
86 10 0 229 -20 487 -45z m745 -87 c176 -90 155 -454 -44 -731 -68 -97 -187
-203 -269 -243 -114 -55 -225 -46 -290 23 -41 44 -67 129 -67 221 0 400 419
857 670 730z m-3585 -114 c74 -42 137 -80 140 -84 6 -9 -61 -48 -687 -409
-163 -94 -304 -174 -312 -177 -14 -6 -16 23 -16 280 0 176 4 286 10 286 5 0
10 -35 12 -77 2 -61 6 -78 18 -78 11 0 16 15 18 62 2 49 6 61 17 56 12 -4 15
-25 15 -89 0 -67 3 -84 15 -84 11 0 15 17 17 73 l3 74 100 -59 c55 -32 105
-61 112 -64 6 -3 96 44 200 104 l188 109 3 77 c2 42 5 76 8 76 2 0 65 -34 139
-76z m-2925 -19 c74 -43 177 -103 227 -133 l93 -54 2 -1121 3 -1121 108 -63
107 -64 0 -214 c0 -138 -4 -215 -10 -215 -6 0 -50 23 -100 51 -49 28 -94 48
-100 44 -6 -4 -10 -104 -10 -291 0 -156 -2 -284 -5 -284 -3 0 -98 53 -210 118
l-205 117 0 301 0 302 -137 79 c-76 44 -270 156 -430 249 l-293 169 0 235 0
235 179 385 c340 734 564 1215 597 1288 19 40 37 71 42 69 4 -2 68 -39 142
-82z m4655 24 c12 -19 -5 -23 -22 -6 -16 16 -16 17 -1 17 9 0 20 -5 23 -11z
m-1555 -194 c0 -76 18 -60 -215 -194 -308 -177 -649 -374 -691 -397 l-40 -24
-44 45 c-28 28 -41 48 -35 54 6 5 114 69 240 142 127 73 349 201 495 286 146
84 271 153 278 153 8 0 12 -19 12 -65z m0 -485 c0 -283 -3 -372 -12 -380 -14
-12 -427 -250 -434 -250 -2 0 -4 170 -4 378 l0 377 213 122 c116 68 218 123
225 123 9 0 12 -80 12 -370z m574 313 c36 -30 123 -73 149 -73 13 0 17 -5 13
-17 -21 -76 -56 -343 -56 -428 0 -33 5 -78 10 -100 5 -22 17 -110 25 -195 17
-163 48 -339 67 -374 6 -12 28 -42 49 -67 38 -46 49 -66 29 -54 -17 10 -21
-19 -12 -78 5 -31 7 -59 5 -61 -8 -8 -208 114 -215 131 -3 10 -7 39 -7 64 -1
26 -16 98 -35 160 -80 267 -116 438 -116 552 0 61 16 234 46 510 4 31 9 57 11
57 3 0 19 -12 37 -27z m-2132 -98 c237 -50 540 -270 700 -509 89 -134 161
-289 187 -408 l9 -38 -72 -41 c-39 -23 -116 -68 -170 -100 -55 -33 -105 -59
-112 -59 -6 0 -15 17 -19 38 -10 55 -71 207 -116 292 -120 222 -322 419 -555
542 -109 58 -223 98 -275 98 -51 0 -55 12 -11 35 20 11 82 47 137 80 93 55
162 83 210 84 11 0 50 -6 87 -14z m2304 -242 c-3 -54 -13 -123 -20 -153 l-14
-55 -1 50 c-1 49 16 217 24 243 2 6 7 12 11 12 4 0 4 -44 0 -97z m-2640 6
c161 -50 347 -169 495 -318 215 -216 337 -471 379 -794 6 -49 10 -456 10
-1080 0 -943 -1 -1007 -19 -1092 -10 -49 -28 -111 -39 -137 -22 -49 -96 -138
-116 -138 -6 0 -43 45 -82 98 -65 90 -78 102 -154 145 -45 26 -95 47 -110 47
-38 0 -93 -63 -120 -139 -14 -36 -29 -61 -37 -61 -38 0 -244 168 -332 270 -62
72 -127 163 -155 218 l-17 32 105 251 c113 268 117 280 100 286 -6 2 -30 -44
-53 -102 -24 -58 -45 -105 -47 -105 -3 0 -217 121 -223 126 -2 2 16 51 39 109
24 58 40 108 37 112 -12 11 -23 -7 -63 -101 l-39 -89 -8 39 c-4 21 -6 502 -5
1069 3 1022 4 1031 25 1107 12 42 31 94 41 115 27 53 87 112 136 134 57 26
165 25 252 -2z m3332 -176 c53 -323 56 -349 56 -573 1 -241 -12 -349 -69 -585
-18 -77 -38 -167 -44 -200 -21 -116 -52 -422 -58 -568 -6 -144 -7 -149 -32
-169 -56 -44 -249 -4 -265 55 -2 11 -3 40 0 66 3 25 16 169 29 319 22 240 28
279 49 321 54 106 65 204 86 770 l11 284 49 54 c49 53 60 73 41 73 -13 0 -161
-165 -161 -179 0 -14 13 -14 28 1 15 15 15 32 2 -297 -14 -362 -28 -544 -46
-606 -20 -67 -171 -369 -184 -369 -6 0 -10 111 -10 310 0 269 -2 310 -16 318
-19 11 -32 116 -15 126 26 16 11 67 -34 121 -27 31 -51 73 -60 101 -17 58 -42
224 -47 309 l-3 60 40 5 c62 9 103 39 130 95 31 66 41 125 22 125 -9 0 -17
-15 -22 -37 -16 -93 -60 -144 -136 -158 l-37 -7 -11 65 c-9 51 -8 72 2 103 8
21 17 57 21 79 14 79 10 77 82 43 50 -24 84 -31 149 -36 132 -8 239 34 369
145 22 18 42 33 46 33 3 0 20 -89 38 -197z m-2098 -245 l-1 -163 -39 92 c-22
50 -50 108 -61 128 -12 20 -19 39 -15 42 9 10 100 62 109 62 4 1 7 -72 7 -161z
m-3309 -226 c-3 -79 -1 -75 -89 -262 -19 -40 -28 -78 -32 -138 l-5 -83 -165
-96 c-227 -131 -407 -233 -411 -233 -5 0 -2 491 3 495 2 2 149 87 328 190 179
103 334 193 345 200 11 7 22 11 25 8 2 -2 3 -39 1 -81z m3459 13 c3 -9 -96
-75 -112 -75 -13 0 -28 74 -18 84 6 6 10 23 10 39 l0 28 59 -33 c32 -18 60
-37 61 -43z m-3953 -131 c9 -23 -11 -38 -26 -20 -13 16 -7 36 10 36 5 0 12 -7
16 -16z m-67 -44 c0 -11 -7 -20 -15 -20 -8 0 -15 9 -15 20 0 11 7 20 15 20 8
0 15 -9 15 -20z m-60 -34 c0 -8 -5 -18 -11 -22 -14 -8 -33 11 -25 25 10 16 36
13 36 -3z m3963 -98 c3 -23 4 -45 2 -49 -7 -10 -345 -202 -349 -198 -2 2 -6
23 -10 46 -5 35 -3 45 11 53 88 53 329 190 334 190 4 0 9 -19 12 -42z m1180
-44 c72 -42 174 -101 224 -131 l93 -55 -158 -90 c-86 -50 -167 -95 -178 -100
-18 -9 -56 10 -244 118 l-223 128 29 23 c16 12 33 23 37 23 5 0 42 20 83 45
40 25 76 45 79 45 2 0 28 16 57 34 29 19 56 35 61 35 4 1 67 -33 140 -75z
m2168 -73 c193 -49 318 -157 319 -274 0 -38 -25 -107 -39 -107 -4 0 -23 12
-42 26 -50 38 -150 82 -238 104 -93 24 -303 27 -401 6 l-65 -14 -31 29 c-17
17 -63 47 -103 68 l-73 38 39 29 c145 111 414 152 634 95z m-2502 -183 c97
-55 200 -115 229 -132 l52 -31 0 -1116 c0 -1050 1 -1117 18 -1131 9 -9 59 -39
110 -68 l92 -52 0 -214 c0 -117 -3 -215 -8 -218 -4 -2 -49 21 -101 51 -54 32
-97 51 -102 46 -5 -5 -10 -137 -11 -295 l-3 -286 -207 120 -208 120 0 301 0
302 -153 88 c-83 48 -276 159 -427 246 l-275 159 -2 238 -3 239 168 360 c92
198 273 588 402 867 129 279 239 508 244 508 6 0 89 -46 185 -102z m1786 32
c92 -29 164 -71 209 -121 45 -49 56 -76 56 -135 0 -113 -109 -207 -303 -261
-89 -25 -318 -24 -407 2 -62 17 -132 47 -156 66 -7 6 -8 29 -2 71 12 89 74
348 86 360 6 6 44 19 84 29 105 27 333 21 433 -11z m-6634 -1181 c44 -31 82
-114 87 -194 3 -43 0 -80 -7 -93 -6 -11 -55 -46 -109 -76 l-97 -56 -7 71 c-14
136 -60 204 -182 272 -47 27 -88 53 -91 57 -3 5 43 36 102 69 l106 60 86 -46
c47 -26 97 -54 112 -64z m5824 75 l80 -3 12 -38 c17 -57 16 -70 -11 -77 -13
-3 -38 -22 -56 -42 l-32 -37 -56 40 -57 40 -3 68 c-3 67 -3 67 20 60 13 -4 59
-9 103 -11z m-6244 -199 c147 -83 189 -148 189 -290 0 -81 -17 -115 -56 -115
-26 0 -164 75 -164 88 0 5 34 27 75 51 70 40 92 61 62 61 -7 0 -47 -20 -89
-45 -43 -25 -84 -45 -93 -45 -16 0 -75 75 -75 96 0 7 23 26 50 43 47 29 64 51
39 51 -6 0 -31 -12 -55 -26 -25 -15 -47 -24 -51 -21 -15 15 -15 134 0 170 22
52 50 49 168 -18z m2839 -67 c125 -69 120 -59 75 -162 l-25 -57 -58 32 c-31
18 -60 37 -64 43 -8 12 -48 175 -48 195 0 6 2 11 4 11 3 0 55 -28 116 -62z
m-123 -66 c17 -65 17 -64 -17 -47 -33 17 -35 27 -19 74 14 39 20 34 36 -27z
m1 -94 c2 -5 10 -8 18 -8 8 0 14 -7 14 -15 0 -8 18 -53 40 -100 33 -73 42
-115 23 -115 -2 0 -47 25 -99 55 -53 30 -99 55 -104 55 -20 0 -18 22 6 86 14
38 28 72 30 76 5 8 66 -21 72 -34z m156 -103 c-4 -11 -12 -31 -20 -45 -12 -25
-13 -25 -38 33 -14 32 -26 62 -26 67 0 5 20 0 45 -12 37 -18 44 -26 39 -43z
m-159 -113 c44 -25 82 -47 84 -48 5 -4 -50 -143 -59 -149 -6 -4 -208 103 -228
120 -2 2 11 37 29 79 l31 75 32 -16 c17 -9 67 -36 111 -61z m-58 -191 l72 -41
-15 -36 c-8 -20 -19 -44 -24 -53 -5 -9 -11 -24 -14 -33 -9 -28 -31 -22 -138
38 -112 64 -108 55 -63 158 l25 57 43 -24 c23 -14 74 -43 114 -66z m1130 -363
c254 -343 333 -453 333 -466 0 -27 -29 -79 -57 -103 -36 -30 -845 -499 -861
-499 -20 0 -32 36 -23 66 5 16 102 263 215 549 178 446 212 525 241 553 19 17
39 32 44 32 5 0 54 -60 108 -132z"/>
<path d="M9044 7761 c-77 -47 -127 -170 -94 -232 9 -15 3 -32 -30 -88 -22 -38
-40 -74 -40 -80 0 -28 24 -4 62 64 35 61 48 74 68 75 101 1 195 194 127 258
-29 27 -53 28 -93 3z m74 -23 c22 -22 14 -91 -17 -140 -34 -53 -60 -71 -99
-66 -24 3 -27 8 -30 45 -4 50 24 109 68 147 34 28 59 33 78 14z"/>
<path d="M2637 7092 c-3 -4 -82 -189 -177 -412 -95 -223 -189 -443 -209 -490
-51 -116 -64 -150 -60 -154 35 -26 464 -264 470 -260 5 3 9 294 9 659 0 565
-2 654 -15 658 -8 4 -16 3 -18 -1z m-1 -820 c-12 -11 -18 7 -10 30 l8 23 4
-23 c2 -13 1 -26 -2 -30z m-12 -41 c14 -16 16 -42 14 -215 l-3 -197 -188 108
c-103 59 -188 112 -189 117 0 9 327 205 343 206 3 0 13 -8 23 -19z"/>
<path d="M5713 7467 c-64 -38 -71 -45 -75 -77 -5 -57 0 -72 25 -64 30 10 120
64 135 82 18 24 13 103 -7 101 -3 0 -38 -19 -78 -42z m67 -27 c0 -13 -17 -29
-52 -50 -63 -36 -70 -37 -66 -8 2 13 21 32 48 49 55 33 70 35 70 9z"/>
<path d="M5509 7351 c-32 -33 -39 -80 -14 -101 24 -20 63 3 81 46 14 32 13 38
-1 60 -20 31 -30 30 -66 -5z m31 -56 c-7 -8 -16 -15 -21 -15 -15 0 -10 28 9
46 16 17 17 17 20 0 2 -9 -2 -23 -8 -31z"/>
<path d="M5711 7271 c-35 -21 -68 -46 -72 -57 -7 -21 -5 -81 4 -90 6 -6 148
74 160 91 13 18 3 90 -13 92 -8 1 -44 -15 -79 -36z m69 -21 c0 -13 -17 -30
-47 -50 -56 -35 -73 -37 -73 -11 0 13 18 30 53 50 62 36 67 37 67 11z"/>
<path d="M5504 7155 c-20 -20 -25 -34 -22 -63 3 -32 7 -37 29 -40 45 -5 96 80
69 113 -18 22 -48 18 -76 -10z m36 -50 c-7 -8 -16 -15 -21 -15 -15 0 -10 22 9
43 15 17 17 17 20 3 2 -9 -2 -23 -8 -31z"/>
<path d="M5715 7078 c-38 -23 -73 -46 -77 -52 -10 -15 -10 -68 1 -85 13 -20
150 55 163 88 11 30 7 83 -7 87 -5 2 -41 -15 -80 -38z m65 -26 c0 -10 -22 -31
-54 -50 -64 -38 -66 -38 -66 -12 0 13 18 32 53 54 54 35 67 37 67 8z"/>
<path d="M5509 6961 c-52 -53 -30 -131 28 -100 23 12 53 62 53 88 0 13 -29 41
-41 41 -6 0 -24 -13 -40 -29z m31 -56 c-7 -8 -16 -15 -21 -15 -15 0 -10 28 9
46 16 17 17 17 20 0 2 -9 -2 -23 -8 -31z"/>
<path d="M4035 6761 c-28 -12 -51 -40 -72 -86 -17 -37 -18 -104 -21 -1024 -3
-1087 -3 -1088 59 -1217 58 -122 182 -222 291 -232 61 -6 93 14 121 76 l22 47
0 1025 c0 1140 4 1068 -68 1203 -67 127 -252 243 -332 208z m358 -356 c15 -67
17 -169 17 -887 0 -514 -3 -809 -10 -802 -5 5 -16 49 -25 98 -13 75 -15 210
-15 877 0 434 4 789 8 789 5 0 16 -34 25 -75z m12 -1993 c-14 -175 -67 -217
-189 -153 -68 36 -103 68 -90 80 20 21 269 159 276 155 5 -3 6 -40 3 -82z"/>
<path d="M7110 6964 c-57 -54 -61 -56 -125 -61 -49 -4 -65 -9 -65 -21 0 -12
12 -13 73 -8 72 7 72 8 135 69 34 34 62 65 62 69 0 19 -26 4 -80 -48z"/>
<path d="M1653 6442 c-15 -10 -31 -53 -26 -69 12 -35 63 9 63 54 0 23 -15 29
-37 15z"/>
<path d="M1437 6312 c-20 -21 -22 -58 -5 -68 15 -9 60 43 56 65 -5 23 -31 25
-51 3z"/>
<path d="M1625 6281 c-74 -18 -162 -83 -219 -160 -20 -27 -36 -54 -36 -60 0
-22 26 -11 43 18 26 44 102 117 152 147 41 23 112 34 154 23 29 -8 20 19 -10
30 -35 12 -40 12 -84 2z"/>
<path d="M5786 4897 c-70 -166 -171 -402 -224 -525 -79 -184 -93 -225 -81
-233 53 -35 436 -253 451 -257 17 -4 18 23 18 657 0 623 -1 661 -17 661 -14 0
-48 -71 -147 -303z m130 -515 c-12 -11 -18 7 -10 30 l8 23 4 -23 c2 -13 1 -26
-2 -30z m-12 -38 c14 -5 16 -33 16 -211 0 -191 -1 -205 -17 -198 -27 10 -362
205 -367 214 -5 8 321 201 340 201 7 0 19 -3 28 -6z"/>
<path d="M7612 5948 c-6 -6 -12 -22 -12 -34 0 -12 -3 -36 -6 -53 l-6 -31 -84
0 c-96 0 -137 -12 -132 -38 3 -15 17 -17 103 -18 l100 -1 0 -53 c0 -45 3 -54
23 -63 48 -22 82 19 82 98 0 20 6 23 68 28 37 4 83 7 103 7 41 0 69 24 51 42
-7 7 -47 11 -110 9 l-99 -2 1 58 1 58 -35 3 c-19 2 -41 -3 -48 -10z"/>
<path d="M4463 3608 c-12 -6 -29 -26 -38 -45 -15 -31 -16 -51 -7 -170 6 -74
13 -137 16 -140 2 -3 18 3 35 13 34 20 37 31 47 200 8 150 1 168 -53 142z"/>
<path d="M4442 3165 c-45 -57 -34 -127 16 -111 29 10 64 70 60 103 -4 40 -48
44 -76 8z"/>
<path d="M3697 8499 c-9 -5 -24 -24 -33 -41 -46 -89 64 -188 145 -132 29 21
54 79 45 107 -3 12 -18 34 -32 50 -20 21 -35 27 -66 27 -23 0 -49 -5 -59 -11z
m110 -32 c25 -24 26 -71 3 -100 -56 -71 -163 3 -119 84 20 38 85 46 116 16z"/>
<path d="M1650 7469 l-53 -110 -47 46 c-25 25 -50 45 -56 45 -6 0 -32 -46 -59
-102 -27 -57 -50 -105 -52 -107 -2 -3 -25 16 -51 42 -50 49 -62 56 -62 34 0
-15 101 -117 116 -117 6 0 33 46 59 103 26 56 49 104 52 106 2 3 27 -19 57
-48 l53 -52 48 106 c27 58 53 109 58 112 5 3 30 -16 57 -42 66 -65 79 -40 14
27 -79 80 -74 82 -134 -43z"/>
<path d="M7875 6967 c-29 -29 -35 -42 -35 -77 0 -34 6 -48 34 -76 39 -39 75
-44 129 -18 25 12 38 27 47 54 25 75 -16 139 -93 147 -43 5 -49 3 -82 -30z
m130 -22 c73 -73 -37 -184 -112 -113 -31 29 -32 89 -1 118 31 28 83 26 113 -5z"/>
<path d="M8936 5015 c-27 -58 -52 -105 -55 -105 -4 0 -27 20 -51 45 -24 25
-47 45 -51 45 -4 0 -31 -50 -60 -110 l-53 -111 -52 52 c-35 34 -54 47 -59 39
-7 -11 100 -130 117 -130 4 0 30 47 57 105 27 58 54 105 58 105 5 0 27 -18 48
-40 22 -22 46 -39 53 -38 8 2 33 44 56 93 59 129 51 124 106 70 29 -29 53 -44
60 -40 13 8 -95 125 -115 125 -6 0 -33 -47 -59 -105z"/>
<path d="M2383 4464 c-83 -41 -76 -178 11 -200 38 -9 116 4 116 21 0 7 7 15
15 19 21 7 20 94 -1 124 -17 25 -65 52 -91 52 -10 0 -32 -8 -50 -16z m95 -30
c35 -24 44 -59 28 -98 -17 -41 -27 -48 -73 -49 -73 -2 -110 89 -57 138 31 29
70 32 102 9z"/>
<path d="M8094 4310 c-17 -5 -38 -18 -48 -29 -9 -10 -57 -112 -105 -226 l-89
-207 -104 -60 c-145 -85 -138 -76 -138 -179 0 -48 3 -95 6 -103 4 -9 38 -35
78 -58 39 -22 141 -82 226 -131 219 -129 227 -129 455 -4 22 12 42 25 45 28 3
3 34 21 70 40 36 19 67 36 70 39 3 3 26 18 52 33 26 15 54 37 63 49 18 26 21
154 4 191 -6 14 -56 50 -123 90 l-113 67 -93 215 c-101 234 -105 239 -186 249
-22 3 -53 1 -70 -4z m-9 -134 c45 -20 113 -16 151 9 21 14 24 13 34 -6 30 -55
-26 -99 -125 -99 -93 0 -148 42 -123 95 6 14 14 24 17 22 3 -2 24 -11 46 -21z
m-44 -101 c61 -34 147 -35 214 0 54 27 55 26 76 -37 17 -53 0 -84 -61 -116
-39 -20 -57 -23 -130 -20 -98 4 -153 26 -176 69 -13 27 -13 33 7 79 12 28 23
50 24 50 2 0 23 -11 46 -25z m-4 -189 c97 -33 226 -16 291 40 l40 34 11 -32
c20 -57 14 -83 -28 -121 -66 -60 -190 -81 -301 -53 -117 30 -167 93 -135 169
l16 38 29 -30 c16 -16 51 -36 77 -45z m-126 -91 c98 -111 376 -107 480 7 l28
31 14 -35 c26 -63 28 -76 14 -111 -48 -113 -288 -169 -460 -107 -80 28 -147
91 -147 137 0 26 28 113 37 113 2 0 17 -16 34 -35z m660 -54 c72 -41 97 -67
83 -89 -6 -9 -111 -74 -235 -145 l-224 -129 -56 4 c-50 4 -76 15 -220 100 -90
52 -188 108 -217 124 -50 28 -72 59 -58 83 5 8 160 101 168 101 2 0 4 -26 3
-58 0 -65 19 -97 81 -139 143 -98 433 -83 539 27 36 38 55 95 44 134 -13 45
-11 50 14 34 12 -8 47 -29 78 -47z"/>
<path d="M1645 4016 c-22 -9 -50 -27 -62 -41 -20 -23 -23 -37 -23 -120 0 -83
3 -97 23 -119 18 -20 201 -128 650 -385 23 -13 27 -22 27 -61 0 -122 62 -194
212 -244 57 -20 208 -30 292 -21 l67 7 -3 76 -3 77 -47 30 c-26 16 -62 39 -80
50 l-33 20 49 3 c51 3 102 -18 254 -104 35 -20 66 -34 68 -31 5 5 15 179 14
242 -2 96 -66 158 -213 207 -49 16 -83 19 -186 17 -95 -2 -131 1 -148 12 -13
7 -23 17 -23 21 0 5 -7 8 -16 8 -9 0 -40 14 -68 32 -28 17 -64 39 -81 48 -159
90 -251 145 -253 152 -2 4 -8 8 -14 8 -6 0 -59 28 -117 61 -97 57 -112 62
-176 65 -46 3 -84 -1 -110 -10z m178 -29 c18 -8 181 -100 362 -205 l331 -191
129 1 c108 1 141 -3 193 -21 132 -45 182 -97 182 -188 0 -29 -4 -53 -9 -53 -5
0 -52 25 -105 55 -117 68 -175 83 -248 66 -62 -14 -108 -53 -108 -91 0 -33 33
-64 130 -120 l75 -44 -34 -7 c-51 -11 -211 7 -273 31 -114 42 -172 122 -148
203 9 32 9 42 -2 52 -7 7 -167 102 -356 210 -356 206 -373 219 -345 264 28 46
155 67 226 38z"/>
<path d="M1692 3948 c-31 -31 -5 -68 49 -68 35 0 69 20 69 40 0 34 -91 55
-118 28z"/>
<path d="M5420 2562 c0 -5 19 -19 42 -32 l42 -23 -23 -16 c-55 -40 -66 -50
-59 -57 4 -3 32 6 62 22 l54 28 50 -27 c27 -15 52 -27 56 -27 14 0 5 29 -11
34 -10 4 -29 15 -42 25 l-25 19 42 21 c40 20 55 41 31 41 -6 0 -33 -12 -59
-26 l-48 -26 -41 26 c-40 26 -71 33 -71 18z"/>
<path d="M3903 1640 c-42 -17 -65 -68 -60 -134 3 -51 8 -63 35 -87 96 -86 212
37 157 167 -10 23 -26 39 -49 49 -40 17 -52 18 -83 5z m77 -59 c14 -27 13
-114 -2 -129 -17 -17 -53 -15 -69 4 -7 9 -13 37 -13 64 0 27 6 55 13 64 18 22
58 20 71 -3z"/>
<path d="M5280 1637 c-47 -16 -80 -68 -80 -124 0 -38 6 -51 33 -78 81 -81 216
-43 233 66 16 95 -88 171 -186 136z m105 -62 c51 -51 21 -135 -48 -135 -67 0
-103 59 -73 118 25 49 82 57 121 17z"/>
<path d="M6475 1640 c-42 -13 -85 -60 -91 -101 -7 -44 16 -102 50 -124 38 -25
105 -30 149 -12 36 15 37 18 37 66 0 47 -2 51 -24 51 -21 0 -25 -5 -28 -37 -3
-37 -4 -38 -45 -41 -51 -4 -83 25 -83 75 0 65 62 100 125 71 21 -9 29 -9 42 4
14 15 13 17 -8 31 -32 21 -87 28 -124 17z"/>
<path d="M3647 1563 c-76 -103 -75 -113 8 -113 62 0 65 -1 65 -24 0 -17 7 -25
25 -28 30 -6 35 -2 35 29 0 16 6 23 20 23 13 0 20 7 20 20 0 13 -7 20 -20 20
-15 0 -20 7 -20 25 0 21 -5 25 -28 25 -23 0 -28 -4 -28 -22 1 -19 -5 -24 -31
-26 -40 -4 -40 1 -8 45 14 18 37 49 51 68 l26 35 -29 0 c-24 0 -38 -12 -86
-77z"/>
<path d="M4137 1563 c-76 -103 -75 -113 8 -113 63 0 65 -1 65 -25 0 -21 5 -25
30 -25 25 0 30 4 30 25 0 18 5 25 20 25 13 0 20 7 20 20 0 13 -7 20 -20 20
-15 0 -20 7 -20 25 0 34 -47 37 -52 3 -2 -18 -11 -24 -35 -26 -18 -2 -33 -1
-33 3 0 5 57 86 93 133 7 9 2 12 -20 12 -24 0 -37 -12 -86 -77z"/>
<path d="M4448 1536 c-2 -57 -2 -110 0 -119 4 -19 49 -26 130 -19 52 4 62 8
62 23 0 17 -8 19 -70 19 l-70 0 0 30 0 30 60 0 c53 0 60 2 60 20 0 18 -7 20
-60 20 l-60 0 0 30 0 30 65 0 c58 0 65 2 65 20 0 19 -7 20 -89 20 l-90 0 -3
-104z"/>
<path d="M4690 1521 c0 -109 2 -119 19 -124 25 -6 31 0 31 34 0 48 51 44 88
-9 19 -26 35 -31 71 -23 2 1 -8 17 -23 35 l-26 35 25 25 c35 35 33 79 -4 117
-27 27 -35 29 -105 29 l-76 0 0 -119z m131 69 c24 -13 26 -65 3 -74 -9 -3 -31
-6 -50 -6 -34 0 -34 0 -34 45 0 44 1 45 31 45 17 0 39 -5 50 -10z"/>
<path d="M4950 1522 c0 -111 1 -120 20 -125 23 -6 40 17 33 44 -3 11 -1 19 3
20 5 0 17 2 27 4 17 3 28 -6 59 -47 12 -16 68 -33 68 -21 0 3 -10 21 -21 40
l-21 34 21 23 c27 28 28 85 2 117 -17 21 -29 24 -105 28 l-86 3 0 -120z m144
62 c37 -37 12 -74 -51 -74 l-43 0 0 38 c0 21 3 42 7 45 12 13 72 7 87 -9z"/>
<path d="M5520 1520 l0 -120 24 0 c21 0 25 6 28 33 4 45 34 43 79 -4 32 -34
41 -37 78 -30 2 1 -8 17 -23 35 l-26 35 25 25 c35 35 33 79 -4 117 -27 27 -35
29 -105 29 l-76 0 0 -120z m138 68 c7 -7 12 -21 12 -33 0 -31 -19 -45 -62 -45
l-38 0 0 45 0 45 38 0 c21 0 43 -5 50 -12z"/>
<path d="M5880 1521 c0 -118 0 -119 25 -123 30 -6 35 -2 35 32 0 25 4 28 52
33 69 9 98 36 98 93 0 65 -30 84 -131 84 l-79 0 0 -119z m144 63 c36 -35 12
-74 -46 -74 -32 0 -38 3 -40 23 0 12 -2 29 -3 37 -1 8 0 18 2 23 7 13 71 7 87
-9z"/>
<path d="M6152 1524 c-29 -64 -50 -120 -47 -124 9 -15 47 3 57 26 10 21 18 24
70 24 53 0 60 -2 70 -25 8 -18 19 -25 39 -25 l28 0 -24 53 c-87 195 -82 187
-113 187 -27 0 -32 -7 -80 -116z m117 -26 c1 -5 -15 -8 -34 -8 -40 0 -41 6
-19 58 l16 37 18 -40 c10 -22 19 -43 19 -47z"/>
<path d="M6670 1521 l0 -118 60 -6 c88 -8 140 1 140 24 0 17 -8 19 -70 19
l-70 0 0 30 c0 30 1 30 55 30 48 0 55 2 55 20 0 18 -7 20 -55 20 -54 0 -55 0
-55 30 l0 30 65 0 c58 0 65 2 65 20 0 19 -7 20 -95 20 l-95 0 0 -119z"/>
</g>
</svg>
